<?xml version="1.0" encoding="utf-8"?>
<!-- Generator: Adobe Illustrator 21.0.0, SVG Export Plug-In . SVG Version: 6.00 Build 0)  -->
<svg version="1.1" id="Layer_1" xmlns="http://www.w3.org/2000/svg" xmlns:xlink="http://www.w3.org/1999/xlink" x="0px" y="0px"
	 viewBox="0 0 256 256" style="enable-background:new 0 0 256 256;" xml:space="preserve">
<style type="text/css">
	.st0{fill:#FFFFFF;}
	.st1{clip-path:url(#SVGID_2_);}
	.st2{fill:#6D4829;}
	.st3{fill:#40C5AF;}
	.st4{fill:#E1BC8F;}
	.st5{fill:#C49970;}
	.st6{fill:none;stroke:#FFFFFF;stroke-width:0.53;stroke-linecap:round;stroke-linejoin:round;}
	.st7{fill:#333333;}
	.st8{fill:none;stroke:#FFFFFF;stroke-width:0.84;stroke-miterlimit:10;}
	.st9{fill:#F05125;}
	.st10{fill:#7FBB42;}
	.st11{fill:#FDB813;}
	.st12{fill:#32A0DA;}
</style>
<circle class="st0" cx="128" cy="128" r="128"/>
<g>
	<defs>
		<circle id="SVGID_1_" cx="128" cy="128" r="128"/>
	</defs>
	<clipPath id="SVGID_2_">
		<use xlink:href="#SVGID_1_"  style="overflow:visible;"/>
	</clipPath>
	<g class="st1">
		<polygon class="st2" points="190.5,227.1 65.5,227.1 65.5,152.3 190.5,152.3 		"/>
		<path class="st3" d="M48.8,204.6h158.7c32,0,57.7,28.4,57.7,62.2v51.4h-57.7v187.6H48.9V317.8H-9.3v-51.4
			C-9.3,233.1,16.8,204.6,48.8,204.6L48.8,204.6z"/>
		<polygon class="st4" points="127.3,224.4 101.2,209.6 101.2,136.5 154.4,136.5 154.4,209.6 		"/>
		<path class="st5" d="M204.4,103.6c0,4.2-3.2,7.6-7.3,8.1H59.7c-4.2-0.4-7.4-3.9-7.2-8.1V87.3c-0.1-3.9,3.1-7.2,7-7.2
			c0.1,0,0.1,0,0.2,0h137.1c3.9-0.1,7.2,3.1,7.2,7c0,0.1,0,0.1,0,0.2l0,0v16.2H204.4z"/>
		<polygon class="st6" points="127.8,224.4 101.6,209.6 101.6,136.5 154.8,136.5 154.8,209.6 		"/>
		<path class="st5" d="M101.6,179.3c8.5,2.4,17.3,3.4,26.2,3.1c9.1,0.1,18.2-1,27.1-3.1v-42.8h-53.2V179.3z"/>
		<path class="st4" d="M66,54.4v97.8c18,13.1,39.5,20.3,61.8,20.7c22.6-0.5,44.6-7.7,63.1-20.7V54.4H66z"/>
		<path class="st2" d="M154.4,0.7c-7.8-4-16.5-6-25.3-5.9C94.6-5.5,66.4,22.2,66,56.7c0,0,0,0,0,0v31.6
			C112,83.7,148.5,47.2,154.4,0.7z"/>
		<path class="st2" d="M102.4,0.7c8.2-4,17.2-6,26.3-5.9C163-5,190.8,22.8,190.9,57.1l0,0v31.1C144.7,83,108.1,46.8,102.4,0.7z"/>
		<path class="st0" d="M101.6,136.5c11.3,14.7,32.4,17.4,47.1,6.1c2.3-1.8,4.3-3.8,6.1-6.1H101.6z"/>
		<path class="st5" d="M119.7,120.7c2.2,2.7,5.5,4.2,9,4.1c3.2,0.1,6.3-1.4,8.1-4.1H119.7z"/>
		<path class="st7" d="M104.3,95.5c0.1,2.2-1.7,4.1-4,4.2c-0.3,0-0.7,0-1-0.1l0,0c-2.2,0.2-4.2-1.5-4.4-3.7
			c-0.2-2.2,1.5-4.2,3.7-4.4c0.2,0,0.4,0,0.6,0C101.8,91.1,104,92.9,104.3,95.5C104.3,95.4,104.3,95.4,104.3,95.5L104.3,95.5z"/>
		<path class="st7" d="M162.5,95.5c0.1,2.2-1.7,4.1-4,4.2c-0.3,0-0.7,0-1-0.1l0,0c-2.2-0.2-3.9-2.1-3.7-4.4c0.2-2,1.7-3.6,3.7-3.7
			C160,91.1,162.2,92.9,162.5,95.5C162.5,95.4,162.5,95.4,162.5,95.5L162.5,95.5z"/>
		<line class="st8" x1="114.7" y1="309.7" x2="104.3" y2="210.9"/>
		<line class="st8" x1="142.2" y1="309.2" x2="152.1" y2="210.9"/>
	</g>
</g>
</svg>
